<?xml version="1.0" standalone="no"?>
<!DOCTYPE svg PUBLIC "-//W3C//DTD SVG 20010904//EN"
 "http://www.w3.org/TR/2001/REC-SVG-20010904/DTD/svg10.dtd">
<svg version="1.0" xmlns="http://www.w3.org/2000/svg"
 width="50.000000pt" height="50.000000pt" viewBox="0 0 50.000000 50.000000"
 preserveAspectRatio="xMidYMid meet">

<g transform="translate(0.000000,50.000000) scale(0.100000,-0.100000)"
fill="#ffff" stroke="none">
<path d="M87 454 c-4 -4 -7 -22 -7 -41 0 -18 -4 -33 -10 -33 -5 0 -10 -4 -10
-10 0 -5 14 -10 30 -10 17 0 30 5 30 10 0 6 -4 10 -10 10 -5 0 -10 14 -10 30
l0 30 150 0 150 0 0 -190 0 -190 -150 0 -150 0 0 25 c0 14 -5 25 -11 25 -6 0
-9 -14 -7 -32 l3 -33 165 0 165 0 0 205 0 205 -161 3 c-88 1 -163 -1 -167 -4z"/>
<path d="M80 335 c0 -8 -4 -15 -10 -15 -5 0 -10 -4 -10 -10 0 -5 14 -10 30
-10 17 0 30 5 30 10 0 6 -4 10 -10 10 -5 0 -10 7 -10 15 0 8 -4 15 -10 15 -5
0 -10 -7 -10 -15z"/>
<path d="M211 326 c-93 -51 -44 -199 56 -170 26 7 26 8 -16 14 -50 8 -71 30
-71 74 1 55 55 95 104 77 37 -15 50 -77 21 -101 -13 -11 -15 -7 -15 28 0 57
-39 66 -79 18 -31 -37 14 -87 47 -54 9 9 12 9 12 0 0 -17 36 -15 54 4 24 23
20 71 -9 99 -27 28 -66 32 -104 11z m59 -65 c0 -22 -25 -45 -39 -37 -18 11 8
55 32 56 4 0 7 -8 7 -19z"/>
<path d="M80 275 c0 -8 -4 -15 -10 -15 -5 0 -10 -4 -10 -10 0 -5 14 -10 30
-10 17 0 30 5 30 10 0 6 -4 10 -10 10 -5 0 -10 7 -10 15 0 8 -4 15 -10 15 -5
0 -10 -7 -10 -15z"/>
<path d="M80 215 c0 -8 -4 -15 -10 -15 -5 0 -10 -4 -10 -10 0 -5 14 -10 30
-10 17 0 30 5 30 10 0 6 -4 10 -10 10 -5 0 -10 7 -10 15 0 8 -4 15 -10 15 -5
0 -10 -7 -10 -15z"/>
<path d="M80 155 c0 -8 -4 -15 -10 -15 -5 0 -10 -4 -10 -10 0 -5 14 -10 30
-10 17 0 30 5 30 10 0 6 -4 10 -10 10 -5 0 -10 7 -10 15 0 8 -4 15 -10 15 -5
0 -10 -7 -10 -15z"/>
</g>
</svg>
