<?xml version="1.0" standalone="no"?>
<!DOCTYPE svg PUBLIC "-//W3C//DTD SVG 20010904//EN"
 "http://www.w3.org/TR/2001/REC-SVG-20010904/DTD/svg10.dtd">
<svg version="1.0" xmlns="http://www.w3.org/2000/svg"
 width="30.000000pt" height="30.000000pt" viewBox="0 0 30.000000 30.000000"
 preserveAspectRatio="xMidYMid meet">

<g transform="translate(0.000000,30.000000) scale(0.100000,-0.100000)"
fill="#FFFF" stroke="none">
<path d="M24 237 c-3 -8 -4 -52 -2 -98 l3 -84 125 0 125 0 0 95 0 95 -123 3
c-96 2 -124 0 -128 -11z m169 -37 l-42 -31 -42 31 -42 30 83 0 84 0 -41 -30z
m-87 -37 c17 -13 37 -23 44 -23 7 0 27 10 44 23 57 43 56 44 56 -27 l0 -66
-100 0 -100 0 0 66 c0 71 -1 70 56 27z"/>
</g>
</svg>
